ffmpeg version 3.4.8-0ubuntu0.2 Copyright (c) 2000-2020 the FFmpeg developers
  built with gcc 7 (Ubuntu 7.5.0-3ubuntu1~18.04)
  configuration: --prefix=/usr --extra-version=0ubuntu0.2 --toolchain=hardened --libdir=/usr/lib/x86_64-linux-gnu --incdir=/usr/include/x86_64-linux-gnu --enable-gpl --disable-stripping --enable-avresample --enable-avisynth --enable-gnutls --enable-ladspa --enable-libass --enable-libbluray --enable-libbs2b --enable-libcaca --enable-libcdio --enable-libflite --enable-libfontconfig --enable-libfreetype --enable-libfribidi --enable-libgme --enable-libgsm --enable-libmp3lame --enable-libmysofa --enable-libopenjpeg --enable-libopenmpt --enable-libopus --enable-libpulse --enable-librubberband --enable-librsvg --enable-libshine --enable-libsnappy --enable-libsoxr --enable-libspeex --enable-libssh --enable-libtheora --enable-libtwolame --enable-libvorbis --enable-libvpx --enable-libwavpack --enable-libwebp --enable-libx265 --enable-libxml2 --enable-libxvid --enable-libzmq --enable-libzvbi --enable-omx --enable-openal --enable-opengl --enable-sdl2 --enable-libdc1394 --enable-libdrm --enable-libiec61883 --enable-chromaprint --enable-frei0r --enable-libopencv --enable-libx264 --enable-shared
  libavutil      55. 78.100 / 55. 78.100
  libavcodec     57.107.100 / 57.107.100
  libavformat    57. 83.100 / 57. 83.100
  libavdevice    57. 10.100 / 57. 10.100
  libavfilter     6.107.100 /  6.107.100
  libavresample   3.  7.  0 /  3.  7.  0
  libswscale      4.  8.100 /  4.  8.100
  libswresample   2.  9.100 /  2.  9.100
  libpostproc    54.  7.100 / 54.  7.100
[rawvideo @ 0x56446e385a20] Estimating duration from bitrate, this may be inaccurate
Input #0, rawvideo, from '../../SVC-Encoder-20220109T061506Z-001/SVC-Encoder/Dataset/RollerCoaster/ERP_8x8/tile_yuv/Tile_53_480x240.yuv':
  Duration: 00:00:10.00, start: 0.000000, bitrate: 41472 kb/s
    Stream #0:0: Video: rawvideo (I420 / 0x30323449), yuv420p, 480x240, 41472 kb/s, 30 tbr, 30 tbn, 30 tbc
Stream mapping:
  Stream #0:0 -> #0:0 (rawvideo (native) -> h264 (libx264))
Press [q] to stop, [?] for help
[libx264 @ 0x56446e392c60] using cpu capabilities: MMX2 SSE2Fast LZCNT SSSE3 SSE4.2 AVX
[libx264 @ 0x56446e392c60] profile High, level 2.1
Output #0, rawvideo, to 'RollerCoaster_Tile_53_480x240_x264_QP_36.h264':
  Metadata:
    encoder         : Lavf57.83.100
    Stream #0:0: Video: h264 (libx264), yuv420p, 480x240, q=-1--1, 30 fps, 30 tbn, 30 tbc
    Metadata:
      encoder         : Lavc57.107.100 libx264
    Side data:
      cpb: bitrate max/min/avg: 0/0/0 buffer size: 0 vbv_delay: -1
frame=  300 fps=0.0 q=42.0 LPSNR=Y:inf U:inf V:inf *:inf size=      31kB time=00:00:09.93 bitrate=  25.9kbits/s speed=22.1x    
video:31kB audio:0kB subtitle:0kB other streams:0kB global headers:0kB muxing overhead: 0.000000%
[libx264 @ 0x56446e392c60] frame I:2     Avg QP:34.28  size:  2687  PSNR Mean Y:41.89 U:42.16 V:41.95 Avg:41.94 Global:41.87
[libx264 @ 0x56446e392c60] frame P:76    Avg QP:34.27  size:   181  PSNR Mean Y:41.60 U:42.28 V:42.30 Avg:41.81 Global:41.79
[libx264 @ 0x56446e392c60] frame B:222   Avg QP:41.51  size:    59  PSNR Mean Y:40.91 U:42.15 V:42.20 Avg:41.28 Global:41.27
[libx264 @ 0x56446e392c60] consecutive B-frames:  0.7%  1.3%  2.0% 96.0%
[libx264 @ 0x56446e392c60] mb I  I16..4: 36.8% 46.2% 17.0%
[libx264 @ 0x56446e392c60] mb P  I16..4:  0.4%  0.5%  0.0%  P16..4: 22.3%  0.8%  0.1%  0.0%  0.0%    skip:76.0%
[libx264 @ 0x56446e392c60] mb B  I16..4:  0.0%  0.0%  0.0%  B16..8:  9.4%  0.0%  0.0%  direct: 0.0%  skip:90.6%  L0:44.9% L1:55.0% BI: 0.1%
[libx264 @ 0x56446e392c60] 8x8 transform intra:49.0% inter:95.4%
[libx264 @ 0x56446e392c60] coded y,uvDC,uvAC intra: 14.0% 27.6% 16.2% inter: 0.1% 0.6% 0.0%
[libx264 @ 0x56446e392c60] i16 v,h,dc,p: 52% 34% 11%  3%
[libx264 @ 0x56446e392c60] i8 v,h,dc,ddl,ddr,vr,hd,vl,hu: 30% 30% 37%  0%  0%  0%  1%  0%  2%
[libx264 @ 0x56446e392c60] i4 v,h,dc,ddl,ddr,vr,hd,vl,hu:  6% 55% 18%  1%  1%  0%  9%  0% 10%
[libx264 @ 0x56446e392c60] i8c dc,h,v,p: 70% 25%  3%  2%
[libx264 @ 0x56446e392c60] Weighted P-Frames: Y:1.3% UV:0.0%
[libx264 @ 0x56446e392c60] ref P L0: 54.5% 12.6% 24.1%  8.8%  0.0%
[libx264 @ 0x56446e392c60] ref B L0: 58.0% 33.1%  9.0%
[libx264 @ 0x56446e392c60] ref B L1: 73.5% 26.5%
[libx264 @ 0x56446e392c60] PSNR Mean Y:41.092 U:42.183 V:42.221 Avg:41.419 Global:41.400 kb/s:25.75
